<svg xmlns="http://www.w3.org/2000/svg" viewBox="-3.2832323541704227 141.5 513.8864466180864 292"> <svg xmlns="http://www.w3.org/2000/svg" viewBox="0 0.75 107.25 128.5" fill="none" height="152.00000000000003" width="126.8638051014073" y="211.5" x="66.71676764582958" preserveAspectRatio="xMinYMin" style="overflow: visible;"><path fill-rule="evenodd" clip-rule="evenodd" d="M41.75 0.75H107.25V22H104.75V3.25H44.25V22H41.75V0.75ZM44.25 126.75V108H41.75V129.25H107.25V108H104.75V126.75H44.25Z" fill="#011528" style="fill: #ffffff; fill-opacity: 1;"></path><path d="M0 36H58V94H0V36Z" fill="#2C87CF" style="fill: #20c4a7; fill-opacity: 1;"></path></svg> <svg y="336.00018310546875" viewBox="0.46000000834465027 4.28000020980835 222.5399932861328 10.15999984741211" x="218.0632209777832" height="10.15999984741211" width="222.5399932861328" style="overflow: visible;"><g fill="#FFFFFF" fill-opacity="1" style=""><path d="M1.78 10.86L1.78 10.86L0.46 11.79Q0.75 12.43 1.29 12.97Q1.82 13.52 2.54 13.84Q3.26 14.16 4.10 14.16L4.10 14.16Q4.72 14.16 5.28 13.97Q5.85 13.78 6.31 13.42Q6.76 13.07 7.02 12.55Q7.28 12.03 7.28 11.36L7.28 11.36Q7.28 10.78 7.09 10.33Q6.90 9.88 6.57 9.55Q6.24 9.22 5.83 8.98Q5.42 8.75 4.98 8.59L4.98 8.59Q4.29 8.36 3.84 8.13Q3.38 7.90 3.16 7.65Q2.94 7.40 2.94 7.06L2.94 7.06Q2.94 6.72 3.21 6.47Q3.48 6.21 4.03 6.21L4.03 6.21Q4.45 6.21 4.77 6.38Q5.10 6.54 5.35 6.81Q5.60 7.07 5.79 7.40L5.79 7.40L7.24 6.59Q7.01 6.11 6.58 5.66Q6.16 5.21 5.53 4.92Q4.90 4.63 4.03 4.63L4.03 4.63Q3.19 4.63 2.50 4.93Q1.82 5.24 1.42 5.80Q1.03 6.37 1.03 7.15L1.03 7.15Q1.03 7.80 1.27 8.26Q1.52 8.72 1.90 9.04Q2.28 9.36 2.70 9.56Q3.12 9.76 3.45 9.88L3.45 9.88Q4.06 10.11 4.48 10.32Q4.90 10.52 5.12 10.78Q5.33 11.04 5.33 11.47L5.33 11.47Q5.33 11.96 4.98 12.25Q4.63 12.53 4.07 12.53L4.07 12.53Q3.59 12.53 3.17 12.32Q2.76 12.12 2.41 11.74Q2.07 11.36 1.78 10.86ZM11.90 4.81L10.04 4.81L10.04 10.92Q10.04 11.73 10.30 12.34Q10.56 12.95 11.02 13.36Q11.49 13.78 12.13 13.99Q12.77 14.21 13.52 14.21L13.52 14.21Q14.26 14.21 14.90 13.99Q15.54 13.78 16.01 13.36Q16.48 12.95 16.74 12.34Q17.00 11.73 17.00 10.92L17.00 10.92L17.00 4.81L15.15 4.81L15.15 10.80Q15.15 11.58 14.74 12.06Q14.33 12.53 13.52 12.53L13.52 12.53Q12.71 12.53 12.30 12.06Q11.90 11.58 11.90 10.80L11.90 10.80L11.90 4.81ZM22.06 4.81L20.20 4.81L20.20 13.91L22.06 13.91L22.06 4.81ZM21.33 4.81L21.33 6.38L23.14 6.38Q23.88 6.38 24.31 6.71Q24.74 7.05 24.74 7.71L24.74 7.71Q24.74 8.36 24.31 8.70Q23.88 9.04 23.14 9.04L23.14 9.04L21.33 9.04L21.33 10.61L23.14 10.61Q24.22 10.61 24.98 10.26Q25.74 9.91 26.14 9.25Q26.55 8.59 26.55 7.71L26.55 7.71Q26.55 6.81 26.14 6.16Q25.74 5.51 24.98 5.16Q24.22 4.81 23.14 4.81L23.14 4.81L21.33 4.81ZM31.15 4.81L29.29 4.81L29.29 13.91L31.15 13.91L31.15 4.81ZM30.42 4.81L30.42 6.38L32.23 6.38Q32.97 6.38 33.40 6.71Q33.83 7.05 33.83 7.71L33.83 7.71Q33.83 8.36 33.40 8.70Q32.97 9.04 32.23 9.04L32.23 9.04L30.42 9.04L30.42 10.61L32.23 10.61Q33.31 10.61 34.07 10.26Q34.83 9.91 35.23 9.25Q35.63 8.59 35.63 7.71L35.63 7.71Q35.63 6.81 35.23 6.16Q34.83 5.51 34.07 5.16Q33.31 4.81 32.23 4.81L32.23 4.81L30.42 4.81ZM39.82 9.36L39.82 9.36Q39.82 8.49 40.18 7.81Q40.55 7.14 41.18 6.75Q41.82 6.36 42.67 6.36L42.67 6.36Q43.52 6.36 44.16 6.75Q44.80 7.14 45.15 7.81Q45.50 8.49 45.50 9.36L45.50 9.36Q45.50 10.23 45.14 10.91Q44.79 11.58 44.15 11.97Q43.51 12.36 42.67 12.36L42.67 12.36Q41.82 12.36 41.18 11.97Q40.55 11.58 40.18 10.91Q39.82 10.23 39.82 9.36ZM37.86 9.36L37.86 9.36Q37.86 10.39 38.21 11.26Q38.56 12.14 39.21 12.79Q39.86 13.44 40.74 13.80Q41.61 14.16 42.67 14.16L42.67 14.16Q43.72 14.16 44.60 13.80Q45.47 13.44 46.12 12.79Q46.76 12.14 47.12 11.26Q47.48 10.39 47.48 9.36L47.48 9.36Q47.48 8.32 47.12 7.46Q46.76 6.59 46.10 5.95Q45.45 5.32 44.58 4.97Q43.71 4.63 42.67 4.63L42.67 4.63Q41.64 4.63 40.76 4.97Q39.88 5.32 39.23 5.95Q38.58 6.59 38.22 7.46Q37.86 8.32 37.86 9.36ZM54.25 9.67L52.29 9.67L55.02 13.91L57.21 13.91L54.25 9.67ZM52.08 4.81L50.22 4.81L50.22 13.91L52.08 13.91L52.08 4.81ZM51.35 4.81L51.35 6.40L53.16 6.40Q53.65 6.40 54.01 6.56Q54.37 6.72 54.56 7.03Q54.76 7.33 54.76 7.76L54.76 7.76Q54.76 8.19 54.56 8.50Q54.37 8.80 54.01 8.96Q53.65 9.13 53.16 9.13L53.16 9.13L51.35 9.13L51.35 10.61L53.27 10.61Q54.35 10.61 55.11 10.24Q55.86 9.88 56.26 9.22Q56.67 8.57 56.67 7.71L56.67 7.71Q56.67 6.84 56.26 6.19Q55.86 5.54 55.11 5.17Q54.35 4.81 53.27 4.81L53.27 4.81L51.35 4.81ZM58.67 4.81L58.67 6.49L61.11 6.49L61.11 13.91L62.97 13.91L62.97 6.49L65.43 6.49L65.43 4.81L58.67 4.81ZM66.48 13.14L66.48 13.14Q66.48 13.56 66.79 13.87Q67.09 14.18 67.55 14.18L67.55 14.18Q68.02 14.18 68.31 13.87Q68.61 13.56 68.61 13.14L68.61 13.14Q68.61 12.70 68.31 12.40Q68.02 12.09 67.55 12.09L67.55 12.09Q67.09 12.09 66.79 12.40Q66.48 12.70 66.48 13.14ZM78.56 10.37L78.34 11.84L83.15 11.84L82.93 10.37L78.56 10.37ZM79.35 10.89L80.72 7.76L82.08 10.92L82.06 11.39L83.23 13.91L85.33 13.91L80.72 4.28L76.10 13.91L78.19 13.91L79.39 11.31L79.35 10.89ZM89.41 4.81L87.55 4.81L87.55 10.92Q87.55 11.73 87.81 12.34Q88.07 12.95 88.54 13.36Q89.01 13.78 89.65 13.99Q90.28 14.21 91.04 14.21L91.04 14.21Q91.78 14.21 92.42 13.99Q93.05 13.78 93.53 13.36Q94.00 12.95 94.26 12.34Q94.52 11.73 94.52 10.92L94.52 10.92L94.52 4.81L92.66 4.81L92.66 10.80Q92.66 11.58 92.25 12.06Q91.84 12.53 91.04 12.53L91.04 12.53Q90.23 12.53 89.82 12.06Q89.41 11.58 89.41 10.80L89.41 10.80L89.41 4.81ZM99.62 4.81L97.72 4.81L97.72 13.91L99.62 13.91L99.62 4.81ZM98.92 13.91L100.81 13.91Q102.24 13.91 103.32 13.35Q104.39 12.79 104.99 11.77Q105.59 10.75 105.59 9.36L105.59 9.36Q105.59 7.97 104.99 6.95Q104.39 5.93 103.32 5.37Q102.24 4.81 100.81 4.81L100.81 4.81L98.92 4.81L98.92 6.50L100.75 6.50Q101.35 6.50 101.88 6.66Q102.41 6.83 102.82 7.18Q103.22 7.53 103.45 8.07Q103.67 8.61 103.67 9.36L103.67 9.36Q103.67 10.11 103.45 10.65Q103.22 11.19 102.82 11.54Q102.41 11.90 101.88 12.06Q101.35 12.22 100.75 12.22L100.75 12.22L98.92 12.22L98.92 13.91ZM110.21 4.81L108.33 4.81L108.33 13.91L110.21 13.91L110.21 4.81ZM112.57 4.81L112.57 6.49L115.01 6.49L115.01 13.91L116.87 13.91L116.87 6.49L119.33 6.49L119.33 4.81L112.57 4.81ZM120.38 13.14L120.38 13.14Q120.38 13.56 120.69 13.87Q120.99 14.18 121.45 14.18L121.45 14.18Q121.91 14.18 122.21 13.87Q122.51 13.56 122.51 13.14L122.51 13.14Q122.51 12.70 122.21 12.40Q121.91 12.09 121.45 12.09L121.45 12.09Q120.99 12.09 120.69 12.40Q120.38 12.70 120.38 13.14ZM132.86 4.81L130.97 4.81L130.97 13.91L132.86 13.91L132.86 4.81ZM144.39 4.81L142.60 4.81L142.60 10.45L136.12 4.36L136.12 13.91L137.92 13.91L137.92 8.27L144.39 14.37L144.39 4.81ZM155.94 4.81L154.14 4.81L154.14 10.45L147.67 4.36L147.67 13.91L149.46 13.91L149.46 8.27L155.94 14.37L155.94 4.81ZM160.65 9.36L160.65 9.36Q160.65 8.49 161.02 7.81Q161.38 7.14 162.02 6.75Q162.66 6.36 163.50 6.36L163.50 6.36Q164.36 6.36 165.00 6.75Q165.63 7.14 165.98 7.81Q166.34 8.49 166.34 9.36L166.34 9.36Q166.34 10.23 165.98 10.91Q165.62 11.58 164.98 11.97Q164.35 12.36 163.50 12.36L163.50 12.36Q162.66 12.36 162.02 11.97Q161.38 11.58 161.02 10.91Q160.65 10.23 160.65 9.36ZM158.69 9.36L158.69 9.36Q158.69 10.39 159.04 11.26Q159.39 12.14 160.04 12.79Q160.69 13.44 161.57 13.80Q162.45 14.16 163.50 14.16L163.50 14.16Q164.55 14.16 165.43 13.80Q166.31 13.44 166.95 12.79Q167.60 12.14 167.95 11.26Q168.31 10.39 168.31 9.36L168.31 9.36Q168.31 8.32 167.95 7.46Q167.60 6.59 166.94 5.95Q166.28 5.32 165.41 4.97Q164.54 4.63 163.50 4.63L163.50 4.63Q162.47 4.63 161.60 4.97Q160.72 5.32 160.07 5.95Q159.42 6.59 159.06 7.46Q158.69 8.32 158.69 9.36ZM176.76 4.81L174.30 10.74L171.83 4.81L169.69 4.81L174.30 14.44L178.92 4.81L176.76 4.81ZM181.39 10.37L181.17 11.84L185.98 11.84L185.76 10.37L181.39 10.37ZM182.18 10.89L183.55 7.76L184.91 10.92L184.89 11.39L186.06 13.91L188.16 13.91L183.55 4.28L178.93 13.91L181.03 13.91L182.22 11.31L182.18 10.89ZM188.63 4.81L188.63 6.49L191.07 6.49L191.07 13.91L192.93 13.91L192.93 6.49L195.39 6.49L195.39 4.81L188.63 4.81ZM199.63 4.81L197.74 4.81L197.74 13.91L199.63 13.91L199.63 4.81ZM204.33 9.36L204.33 9.36Q204.33 8.49 204.70 7.81Q205.06 7.14 205.70 6.75Q206.34 6.36 207.18 6.36L207.18 6.36Q208.04 6.36 208.68 6.75Q209.31 7.14 209.66 7.81Q210.02 8.49 210.02 9.36L210.02 9.36Q210.02 10.23 209.66 10.91Q209.30 11.58 208.66 11.97Q208.03 12.36 207.18 12.36L207.18 12.36Q206.34 12.36 205.70 11.97Q205.06 11.58 204.70 10.91Q204.33 10.23 204.33 9.36ZM202.37 9.36L202.37 9.36Q202.37 10.39 202.72 11.26Q203.07 12.14 203.72 12.79Q204.37 13.44 205.25 13.80Q206.13 14.16 207.18 14.16L207.18 14.16Q208.23 14.16 209.11 13.80Q209.99 13.44 210.63 12.79Q211.28 12.14 211.63 11.26Q211.99 10.39 211.99 9.36L211.99 9.36Q211.99 8.32 211.63 7.46Q211.28 6.59 210.62 5.95Q209.96 5.32 209.09 4.97Q208.22 4.63 207.18 4.63L207.18 4.63Q206.15 4.63 205.28 4.97Q204.40 5.32 203.75 5.95Q203.10 6.59 202.74 7.46Q202.37 8.32 202.37 9.36ZM223.00 4.81L221.21 4.81L221.21 10.45L214.73 4.36L214.73 13.91L216.53 13.91L216.53 8.27L223.00 14.37L223.00 4.81Z" transform="translate(0, 0)"></path></g></svg> <svg y="269.02018310546873" viewBox="1.4900000095367432 12.289999961853027 128.00999450683594 34.75" x="165.0632209777832" height="34.75" width="128.00999450683594" style="overflow: visible;"><g fill="#ffffff" fill-opacity="1" style=""><path d="M32.64 39.41L1.49 39.41L1.49 34.18L17.33 12.86L25.49 12.86L9.98 34.18L6.19 33.07L32.64 33.07L32.64 39.41ZM27.17 46.46L19.58 46.46L19.58 39.41L19.82 33.07L19.82 26.78L27.17 26.78L27.17 46.46ZM53.86 47.04L53.86 47.04Q49.82 47.04 46.13 45.96Q42.43 44.88 40.18 43.15L40.18 43.15L42.82 37.30Q44.98 38.83 47.93 39.82Q50.88 40.80 53.90 40.80L53.90 40.80Q56.21 40.80 57.62 40.34Q59.04 39.89 59.71 39.07Q60.38 38.26 60.38 37.20L60.38 37.20Q60.38 35.86 59.33 35.06Q58.27 34.27 56.54 33.77Q54.82 33.26 52.73 32.81Q50.64 32.35 48.55 31.68Q46.46 31.01 44.74 29.95Q43.01 28.90 41.93 27.17Q40.85 25.44 40.85 22.75L40.85 22.75Q40.85 19.87 42.41 17.50Q43.97 15.12 47.11 13.70Q50.26 12.29 55.01 12.29L55.01 12.29Q58.18 12.29 61.25 13.03Q64.32 13.78 66.67 15.26L66.67 15.26L64.27 21.17Q61.92 19.82 59.57 19.18Q57.22 18.53 54.96 18.53L54.96 18.53Q52.70 18.53 51.26 19.06Q49.82 19.58 49.20 20.42Q48.58 21.26 48.58 22.37L48.58 22.37Q48.58 23.66 49.63 24.46Q50.69 25.25 52.42 25.73Q54.14 26.21 56.23 26.69Q58.32 27.17 60.41 27.79Q62.50 28.42 64.22 29.47Q65.95 30.53 67.03 32.26Q68.11 33.98 68.11 36.62L68.11 36.62Q68.11 39.46 66.53 41.81Q64.94 44.16 61.80 45.60Q58.66 47.04 53.86 47.04ZM82.75 46.46L74.78 46.46L89.76 12.86L97.44 12.86L112.46 46.46L104.30 46.46L92.02 16.80L95.09 16.80L82.75 46.46ZM103.73 39.26L82.27 39.26L84.34 33.36L101.62 33.36L103.73 39.26ZM129.50 46.46L121.73 46.46L121.73 12.86L129.50 12.86L129.50 46.46Z" transform="translate(0, 0)"></path></g></svg></svg>