<svg xmlns="http://www.w3.org/2000/svg" viewBox="-3.2832323541704227 141.5 449.5764490594927 292"> <svg xmlns="http://www.w3.org/2000/svg" viewBox="0 0.75 107.25 128.5" fill="none" height="152.00000000000003" width="126.8638051014073" y="211.5" x="66.71676764582958" preserveAspectRatio="xMinYMin" style="overflow: visible;"><path fill-rule="evenodd" clip-rule="evenodd" d="M41.75 0.75H107.25V22H104.75V3.25H44.25V22H41.75V0.75ZM44.25 126.75V108H41.75V129.25H107.25V108H104.75V126.75H44.25Z" fill="#011528" style="fill: #011528;"></path><path d="M0 36H58V94H0V36Z" fill="#2C87CF" style="fill: #127147; fill-opacity: 1;"></path></svg> <svg y="336.00018310546875" viewBox="0.3500000238418579 2.5799999237060547 158.22999572753906 7.199999809265137" x="218.0632209777832" height="7.199999809265137" width="158.22999572753906" style="overflow: visible;"><g fill="#000000" fill-opacity="1" style=""><path d="M3.11 9.78L3.11 9.78Q2.29 9.78 1.54 9.54Q0.79 9.31 0.35 8.94L0.35 8.94L0.80 7.93Q1.22 8.26 1.84 8.48Q2.46 8.70 3.11 8.70L3.11 8.70Q3.66 8.70 4 8.58Q4.34 8.46 4.50 8.25Q4.66 8.05 4.66 7.79L4.66 7.79Q4.66 7.47 4.43 7.27Q4.20 7.08 3.83 6.96Q3.47 6.85 3.02 6.75Q2.58 6.65 2.14 6.51Q1.69 6.38 1.32 6.16Q0.96 5.95 0.73 5.59Q0.50 5.23 0.50 4.67L0.50 4.67Q0.50 4.10 0.81 3.63Q1.11 3.15 1.74 2.86Q2.36 2.58 3.32 2.58L3.32 2.58Q3.95 2.58 4.57 2.74Q5.19 2.90 5.65 3.20L5.65 3.20L5.24 4.21Q4.77 3.93 4.27 3.79Q3.77 3.66 3.31 3.66L3.31 3.66Q2.77 3.66 2.44 3.79Q2.10 3.92 1.95 4.13Q1.79 4.34 1.79 4.61L1.79 4.61Q1.79 4.93 2.02 5.13Q2.24 5.32 2.60 5.43Q2.97 5.54 3.42 5.64Q3.87 5.75 4.32 5.88Q4.76 6.01 5.13 6.22Q5.49 6.43 5.71 6.79Q5.94 7.15 5.94 7.70L5.94 7.70Q5.94 8.26 5.63 8.73Q5.33 9.21 4.70 9.49Q4.07 9.78 3.11 9.78ZM10.14 9.78L10.14 9.78Q8.70 9.78 7.89 8.97Q7.07 8.16 7.07 6.63L7.07 6.63L7.07 2.68L8.37 2.68L8.37 6.58Q8.37 7.66 8.84 8.15Q9.30 8.64 10.15 8.64L10.15 8.64Q11 8.64 11.46 8.15Q11.92 7.66 11.92 6.58L11.92 6.58L11.92 2.68L13.20 2.68L13.20 6.63Q13.20 8.16 12.39 8.97Q11.57 9.78 10.14 9.78ZM16.22 9.68L14.92 9.68L14.92 2.68L17.80 2.68Q18.73 2.68 19.40 2.98Q20.06 3.28 20.42 3.84Q20.78 4.40 20.78 5.17L20.78 5.17Q20.78 5.94 20.42 6.50Q20.06 7.06 19.40 7.36Q18.73 7.66 17.80 7.66L17.80 7.66L15.64 7.66L16.22 7.05L16.22 9.68ZM16.22 3.14L16.22 7.19L15.64 6.56L17.74 6.56Q18.60 6.56 19.04 6.20Q19.47 5.83 19.47 5.17L19.47 5.17Q19.47 4.50 19.04 4.14Q18.60 3.78 17.74 3.78L17.74 3.78L15.64 3.78L16.22 3.14ZM23.38 9.68L22.08 9.68L22.08 2.68L24.96 2.68Q25.89 2.68 26.55 2.98Q27.22 3.28 27.58 3.84Q27.94 4.40 27.94 5.17L27.94 5.17Q27.94 5.94 27.58 6.50Q27.22 7.06 26.55 7.36Q25.89 7.66 24.96 7.66L24.96 7.66L22.80 7.66L23.38 7.05L23.38 9.68ZM23.38 3.14L23.38 7.19L22.80 6.56L24.90 6.56Q25.76 6.56 26.20 6.20Q26.63 5.83 26.63 5.17L26.63 5.17Q26.63 4.50 26.20 4.14Q25.76 3.78 24.90 3.78L24.90 3.78L22.80 3.78L23.38 3.14ZM32.52 9.78L32.52 9.78Q31.70 9.78 31.01 9.51Q30.32 9.24 29.81 8.75Q29.30 8.27 29.02 7.62Q28.74 6.96 28.74 6.18L28.74 6.18Q28.74 5.40 29.02 4.74Q29.30 4.09 29.81 3.60Q30.32 3.12 31.01 2.85Q31.70 2.58 32.51 2.58L32.51 2.58Q33.33 2.58 34.02 2.85Q34.70 3.12 35.21 3.60Q35.72 4.09 36 4.74Q36.28 5.40 36.28 6.18L36.28 6.18Q36.28 6.96 36 7.62Q35.72 8.28 35.21 8.76Q34.70 9.24 34.02 9.51Q33.33 9.78 32.52 9.78ZM32.51 8.64L32.51 8.64Q33.04 8.64 33.49 8.46Q33.94 8.28 34.27 7.94Q34.60 7.61 34.78 7.16Q34.97 6.72 34.97 6.18L34.97 6.18Q34.97 5.64 34.78 5.19Q34.60 4.75 34.27 4.42Q33.94 4.08 33.49 3.90Q33.04 3.72 32.51 3.72L32.51 3.72Q31.98 3.72 31.53 3.90Q31.09 4.08 30.75 4.42Q30.42 4.75 30.23 5.19Q30.05 5.64 30.05 6.18L30.05 6.18Q30.05 6.71 30.23 7.16Q30.42 7.61 30.75 7.94Q31.08 8.28 31.53 8.46Q31.98 8.64 32.51 8.64ZM38.86 9.68L37.56 9.68L37.56 2.68L40.44 2.68Q41.37 2.68 42.03 2.98Q42.70 3.28 43.06 3.84Q43.42 4.40 43.42 5.17L43.42 5.17Q43.42 5.94 43.06 6.49Q42.70 7.05 42.03 7.34Q41.37 7.64 40.44 7.64L40.44 7.64L38.28 7.64L38.86 7.05L38.86 9.68ZM43.54 9.68L42.14 9.68L40.37 7.14L41.76 7.14L43.54 9.68ZM38.86 3.14L38.86 7.19L38.28 6.57L40.38 6.57Q41.24 6.57 41.67 6.20Q42.11 5.83 42.11 5.17L42.11 5.17Q42.11 4.50 41.67 4.14Q41.24 3.78 40.38 3.78L40.38 3.78L38.28 3.78L38.86 3.14ZM47.49 9.68L46.19 9.68L46.19 3.78L43.87 3.78L43.87 2.68L49.81 2.68L49.81 3.78L47.49 3.78L47.49 9.68ZM50.97 9.75L50.97 9.75Q50.63 9.75 50.39 9.52Q50.15 9.28 50.15 8.92L50.15 8.92Q50.15 8.54 50.39 8.31Q50.63 8.09 50.97 8.09L50.97 8.09Q51.31 8.09 51.55 8.31Q51.79 8.54 51.79 8.92L51.79 8.92Q51.79 9.28 51.55 9.52Q51.31 9.75 50.97 9.75ZM56.04 9.68L54.70 9.68L57.85 2.68L59.13 2.68L62.29 9.68L60.93 9.68L58.22 3.37L58.74 3.37L56.04 9.68ZM60.63 8.06L56.15 8.06L56.50 7.04L60.28 7.04L60.63 8.06ZM66.09 9.78L66.09 9.78Q64.65 9.78 63.83 8.97Q63.02 8.16 63.02 6.63L63.02 6.63L63.02 2.68L64.32 2.68L64.32 6.58Q64.32 7.66 64.78 8.15Q65.25 8.64 66.10 8.64L66.10 8.64Q66.95 8.64 67.41 8.15Q67.87 7.66 67.87 6.58L67.87 6.58L67.87 2.68L69.15 2.68L69.15 6.63Q69.15 8.16 68.33 8.97Q67.52 9.78 66.09 9.78ZM73.93 9.68L70.87 9.68L70.87 2.68L73.93 2.68Q75.07 2.68 75.93 3.12Q76.79 3.56 77.27 4.34Q77.75 5.12 77.75 6.18L77.75 6.18Q77.75 7.23 77.27 8.02Q76.79 8.80 75.93 9.24Q75.07 9.68 73.93 9.68L73.93 9.68ZM72.17 3.78L72.17 8.58L73.87 8.58Q74.66 8.58 75.24 8.28Q75.81 7.98 76.13 7.44Q76.44 6.90 76.44 6.18L76.44 6.18Q76.44 5.45 76.13 4.92Q75.81 4.38 75.24 4.08Q74.66 3.78 73.87 3.78L73.87 3.78L72.17 3.78ZM80.33 9.68L79.03 9.68L79.03 2.68L80.33 2.68L80.33 9.68ZM84.84 9.68L83.54 9.68L83.54 3.78L81.22 3.78L81.22 2.68L87.16 2.68L87.16 3.78L84.84 3.78L84.84 9.68ZM88.32 9.75L88.32 9.75Q87.98 9.75 87.74 9.52Q87.50 9.28 87.50 8.92L87.50 8.92Q87.50 8.54 87.74 8.31Q87.98 8.09 88.32 8.09L88.32 8.09Q88.66 8.09 88.90 8.31Q89.14 8.54 89.14 8.92L89.14 8.92Q89.14 9.28 88.90 9.52Q88.66 9.75 88.32 9.75ZM94.34 9.68L93.04 9.68L93.04 2.68L94.34 2.68L94.34 9.68ZM97.42 9.68L96.13 9.68L96.13 2.68L97.20 2.68L101.59 8.07L101.06 8.07L101.06 2.68L102.35 2.68L102.35 9.68L101.28 9.68L96.89 4.29L97.42 4.29L97.42 9.68ZM105.42 9.68L104.13 9.68L104.13 2.68L105.20 2.68L109.59 8.07L109.06 8.07L109.06 2.68L110.35 2.68L110.35 9.68L109.28 9.68L104.89 4.29L105.42 4.29L105.42 9.68ZM115.41 9.78L115.41 9.78Q114.59 9.78 113.90 9.51Q113.21 9.24 112.70 8.75Q112.19 8.27 111.91 7.62Q111.63 6.96 111.63 6.18L111.63 6.18Q111.63 5.40 111.91 4.74Q112.19 4.09 112.70 3.60Q113.21 3.12 113.90 2.85Q114.59 2.58 115.40 2.58L115.40 2.58Q116.22 2.58 116.91 2.85Q117.59 3.12 118.10 3.60Q118.61 4.09 118.89 4.74Q119.17 5.40 119.17 6.18L119.17 6.18Q119.17 6.96 118.89 7.62Q118.61 8.28 118.10 8.76Q117.59 9.24 116.91 9.51Q116.22 9.78 115.41 9.78ZM115.40 8.64L115.40 8.64Q115.93 8.64 116.38 8.46Q116.83 8.28 117.16 7.94Q117.49 7.61 117.68 7.16Q117.86 6.72 117.86 6.18L117.86 6.18Q117.86 5.64 117.68 5.19Q117.49 4.75 117.16 4.42Q116.83 4.08 116.38 3.90Q115.93 3.72 115.40 3.72L115.40 3.72Q114.87 3.72 114.43 3.90Q113.98 4.08 113.65 4.42Q113.31 4.75 113.13 5.19Q112.94 5.64 112.94 6.18L112.94 6.18Q112.94 6.71 113.13 7.16Q113.31 7.61 113.64 7.94Q113.97 8.28 114.42 8.46Q114.87 8.64 115.40 8.64ZM123.80 9.68L122.52 9.68L119.46 2.68L120.87 2.68L123.60 9.01L122.79 9.01L125.55 2.68L126.85 2.68L123.80 9.68ZM127.99 9.68L126.65 9.68L129.80 2.68L131.08 2.68L134.24 9.68L132.88 9.68L130.17 3.37L130.69 3.37L127.99 9.68ZM132.58 8.06L128.10 8.06L128.45 7.04L132.23 7.04L132.58 8.06ZM137.75 9.68L136.45 9.68L136.45 3.78L134.13 3.78L134.13 2.68L140.07 2.68L140.07 3.78L137.75 3.78L137.75 9.68ZM142.25 9.68L140.95 9.68L140.95 2.68L142.25 2.68L142.25 9.68ZM147.32 9.78L147.32 9.78Q146.50 9.78 145.81 9.51Q145.12 9.24 144.61 8.75Q144.10 8.27 143.82 7.62Q143.54 6.96 143.54 6.18L143.54 6.18Q143.54 5.40 143.82 4.74Q144.10 4.09 144.61 3.60Q145.12 3.12 145.81 2.85Q146.50 2.58 147.31 2.58L147.31 2.58Q148.13 2.58 148.82 2.85Q149.50 3.12 150.01 3.60Q150.52 4.09 150.80 4.74Q151.08 5.40 151.08 6.18L151.08 6.18Q151.08 6.96 150.80 7.62Q150.52 8.28 150.01 8.76Q149.50 9.24 148.82 9.51Q148.13 9.78 147.32 9.78ZM147.31 8.64L147.31 8.64Q147.84 8.64 148.29 8.46Q148.74 8.28 149.07 7.94Q149.40 7.61 149.59 7.16Q149.77 6.72 149.77 6.18L149.77 6.18Q149.77 5.64 149.59 5.19Q149.40 4.75 149.07 4.42Q148.74 4.08 148.29 3.90Q147.84 3.72 147.31 3.72L147.31 3.72Q146.78 3.72 146.34 3.90Q145.89 4.08 145.56 4.42Q145.22 4.75 145.04 5.19Q144.85 5.64 144.85 6.18L144.85 6.18Q144.85 6.71 145.04 7.16Q145.22 7.61 145.55 7.94Q145.88 8.28 146.33 8.46Q146.78 8.64 147.31 8.64ZM153.65 9.68L152.36 9.68L152.36 2.68L153.43 2.68L157.82 8.07L157.29 8.07L157.29 2.68L158.58 2.68L158.58 9.68L157.51 9.68L153.12 4.29L153.65 4.29L153.65 9.68Z" transform="translate(0, 0)"></path></g></svg> <svg y="269.02018310546873" viewBox="1.4900000095367432 12.289999961853027 128.00999450683594 34.75" x="165.0632209777832" height="34.75" width="128.00999450683594" style="overflow: visible;"><g fill="#011528" fill-opacity="1" style=""><path d="M32.64 39.41L1.49 39.41L1.49 34.18L17.33 12.86L25.49 12.86L9.98 34.18L6.19 33.07L32.64 33.07L32.64 39.41ZM27.17 46.46L19.58 46.46L19.58 39.41L19.82 33.07L19.82 26.78L27.17 26.78L27.17 46.46ZM53.86 47.04L53.86 47.04Q49.82 47.04 46.13 45.96Q42.43 44.88 40.18 43.15L40.18 43.15L42.82 37.30Q44.98 38.83 47.93 39.82Q50.88 40.80 53.90 40.80L53.90 40.80Q56.21 40.80 57.62 40.34Q59.04 39.89 59.71 39.07Q60.38 38.26 60.38 37.20L60.38 37.20Q60.38 35.86 59.33 35.06Q58.27 34.27 56.54 33.77Q54.82 33.26 52.73 32.81Q50.64 32.35 48.55 31.68Q46.46 31.01 44.74 29.95Q43.01 28.90 41.93 27.17Q40.85 25.44 40.85 22.75L40.85 22.75Q40.85 19.87 42.41 17.50Q43.97 15.12 47.11 13.70Q50.26 12.29 55.01 12.29L55.01 12.29Q58.18 12.29 61.25 13.03Q64.32 13.78 66.67 15.26L66.67 15.26L64.27 21.17Q61.92 19.82 59.57 19.18Q57.22 18.53 54.96 18.53L54.96 18.53Q52.70 18.53 51.26 19.06Q49.82 19.58 49.20 20.42Q48.58 21.26 48.58 22.37L48.58 22.37Q48.58 23.66 49.63 24.46Q50.69 25.25 52.42 25.73Q54.14 26.21 56.23 26.69Q58.32 27.17 60.41 27.79Q62.50 28.42 64.22 29.47Q65.95 30.53 67.03 32.26Q68.11 33.98 68.11 36.62L68.11 36.62Q68.11 39.46 66.53 41.81Q64.94 44.16 61.80 45.60Q58.66 47.04 53.86 47.04ZM82.75 46.46L74.78 46.46L89.76 12.86L97.44 12.86L112.46 46.46L104.30 46.46L92.02 16.80L95.09 16.80L82.75 46.46ZM103.73 39.26L82.27 39.26L84.34 33.36L101.62 33.36L103.73 39.26ZM129.50 46.46L121.73 46.46L121.73 12.86L129.50 12.86L129.50 46.46Z" transform="translate(0, 0)"></path></g></svg></svg>